# xmcd
#
# Track frame offsets:
#	150
#	21469
#	41484
#	67965
#	83846
#	101251
#	120916
#	136777
#	154253
#	169728
#	185419
#	208549
#	226721
#	245791
#	267016
#	289340
#	308672
#
# Disc length: 4463 seconds
#
# Revision: 8
# Processed by: cddbd v1.5.2PL0 Copyright (c) Steve Scherf et al.
# Submitted via: EasyCDDAExtractor 12.0.4.1
#
DISCID=dd116d11
DTITLE=Lynyrd Skynyrd - The Collection
DYEAR=2001
DGENRE=Southern Rock
TTITLE0=Sweet Home Alabama
TTITLE1=Gimme Three Steps (Original Version)
TTITLE2=Simple Man (Original Version)
TTITLE3=Swamp Music
TTITLE4=The Needle And The Spoon
TTITLE5=I'm A Country Boy
TTITLE6=What's Your Name
TTITLE7=I Ain't The One (Original Version)
TTITLE8=Don't Ask Me No Questions
TTITLE9=Gimme Back My Bullets
TTITLE10=Saturday Night Special
TTITLE11=Honky Tonk Night Time Man
TTITLE12=Railroad Song
TTITLE13=Workin' For Mca
TTITLE14=Every Mother's Son
TTITLE15=Whiskey Rock-A-Roller
TTITLE16=That Smell
EXTD=CDDBSort:lynyrd_skynyrd,collection - YEAR: 2001
EXTT0=
EXTT1=
EXTT2=
EXTT3=
EXTT4=
EXTT5=
EXTT6=
EXTT7=
EXTT8=
EXTT9=
EXTT10=
EXTT11=
EXTT12=
EXTT13=
EXTT14=
EXTT15=
EXTT16=
PLAYORDER=
